<svg width="162" height="22" viewBox="0 0 162 22" fill="none" xmlns="http://www.w3.org/2000/svg">
<path d="M19.6118 13.7957C18.7743 13.7957 18.0925 14.0444 17.7066 14.2245C17.7085 13.6577 17.7085 13.3145 17.7085 13.285C17.7085 13.1539 17.779 13.1689 17.779 13.1689C17.9463 13.1539 18.0826 12.9788 18.0826 12.8293C18.0826 12.6848 18.0035 12.6593 17.9186 12.668C17.844 12.6744 17.8207 12.668 17.8207 12.668H10.6767H9.91189H2.77008C2.77008 12.668 2.74608 12.6744 2.67296 12.668C2.58654 12.659 2.50862 12.6845 2.50862 12.8293C2.50862 12.9788 2.64563 13.1542 2.81181 13.1689C2.81181 13.1689 2.88235 13.1539 2.88235 13.285C2.88235 13.3145 2.88235 13.6581 2.88309 14.2245C2.49717 14.0444 1.81545 13.7957 0.976044 13.7957C-0.341604 13.7957 -0.176159 14.6741 0.594192 14.6741C1.36196 14.6741 1.74566 14.8509 2.07507 15.2448C2.29775 15.51 2.69216 15.5769 2.92593 15.5945C3.09322 17.4648 3.60765 19.3721 3.60765 19.3721C3.60765 19.3721 3.81187 19.8914 4.02089 20.1958C4.1627 20.4046 4.53642 21.1022 6.20712 21.3682C7.21456 21.5342 7.70203 21.6147 10.2937 21.6154C12.8877 21.6147 13.3744 21.5342 14.3833 21.3682C16.0529 21.1022 16.4266 20.405 16.5692 20.1958C16.7775 19.8914 16.9791 19.3721 16.9791 19.3721C16.9791 19.3721 17.4972 17.4644 17.6619 15.5945C17.8957 15.5769 18.2901 15.51 18.5124 15.2448C18.8433 14.8509 19.2278 14.6741 19.9966 14.6741C20.7655 14.6741 20.9298 13.7957 19.6111 13.7957H19.6118Z" fill="#72645B"/>
<path d="M12.4184 5.28199C12.2134 6.28506 11.8703 6.55748 11.7138 6.52981C11.5852 6.52406 11.4468 6.37814 11.4309 6.2272C11.343 5.43509 11.7234 4.96536 11.8016 4.87803C12.0435 4.60705 12.2751 4.42447 12.5532 4.2552C12.5406 4.69761 12.4631 5.06492 12.4184 5.28163V5.28199ZM16.108 4.0658C15.5001 3.33694 14.3538 2.87656 13.0705 3.35959C12.9269 2.46433 12.5162 1.70781 11.8382 1.09576C11.0797 0.413626 10.0589 0.0337458 8.99204 0.00391601V-0.000396729H8.95548C8.94921 -0.000396729 8.94293 0.00104085 8.93628 0.00104085C8.93 0.00104085 8.92409 -0.000396729 8.91966 -0.000396729L8.91929 0.00175964C5.91913 0.0369803 4.12842 2.15633 4.12842 4.27748C4.12842 6.34113 5.82385 8.38572 8.68073 8.52697V7.87215C6.60492 7.71617 5.34672 6.03672 5.34672 4.27784C5.34672 2.43918 6.72272 0.672391 8.96176 0.656937H8.99241V0.650468C9.84142 0.603746 10.7037 0.844541 11.4453 1.51194C12.1654 2.16172 12.4475 2.93011 12.5299 3.61332C12.0775 3.85699 11.7274 4.1003 11.3644 4.50749C11.2163 4.67497 10.6698 5.21335 10.8533 6.28722C10.9264 6.71921 11.2676 7.07645 11.689 7.09657C12.0409 7.11311 12.6761 6.90969 12.9893 5.39017C13.0942 4.88198 13.1407 4.40003 13.127 3.94899C14.2726 3.43937 15.1981 3.8728 15.6571 4.42232C16.0818 4.9287 16.3314 5.81102 15.6416 6.62649C14.8579 7.5451 13.7183 8.15248 12.8039 8.64054C11.8297 9.16346 11.0594 9.57424 10.98 10.1996C10.9371 10.5496 11.1192 10.9004 11.5343 11.2691L11.7477 11.4589L12.1403 11.0445L11.9272 10.8519C11.6624 10.6168 11.538 10.4213 11.5568 10.2679C11.5985 9.93005 12.3201 9.54405 13.0824 9.13686C14.0411 8.62472 15.2335 7.98931 16.0862 6.98624C16.8281 6.11255 16.8377 4.93985 16.1084 4.06652L16.108 4.0658Z" fill="#D46229"/>
<path d="M35.6806 16.8236C35.4498 19.2826 33.9977 20.6936 31.6966 20.6936C27.5937 20.6936 27.2758 16.3898 27.2758 15.0716C27.2758 12.5005 28.0424 9.43555 31.6966 9.43555C33.8858 9.43555 35.4804 11.092 35.7618 13.6545L35.7744 13.7713H37.064V8.41954H35.9055L35.4239 9.57068C34.264 8.63805 32.8772 8.12592 31.4987 8.12592C27.3522 8.12592 24.8779 10.7229 24.8779 15.0716C24.8779 19.4095 27.2787 21.9996 31.2989 21.9996C34.9634 21.9996 37.0126 20.217 37.2242 16.843L37.2327 16.7043H35.6924L35.6809 16.8236H35.6806Z" fill="#4F4E51"/>
<path d="M45.4223 20.6932C41.7958 20.6932 40.5044 17.7897 40.5044 15.0712C40.5044 12.3466 41.7958 9.43627 45.4223 9.43627C49.0492 9.43627 50.3413 12.347 50.3413 15.0712C50.3413 17.7893 49.0492 20.6932 45.4223 20.6932ZM45.4223 8.12592C40.3958 8.12592 38.1069 11.7256 38.1069 15.0716C38.1069 18.4086 40.3958 21.9996 45.4223 21.9996C50.4495 21.9996 52.7399 18.4082 52.7399 15.0716C52.7399 11.7256 50.4495 8.12592 45.4223 8.12592Z" fill="#4F4E51"/>
<path d="M61.1751 20.6932C57.5508 20.6932 56.2587 17.7897 56.2587 15.0712C56.2587 12.3466 57.5508 9.43627 61.1751 9.43627C64.8019 9.43627 66.0948 12.347 66.0948 15.0712C66.0948 17.7893 64.8016 20.6932 61.1751 20.6932ZM61.1751 8.12592C56.1512 8.12592 53.8623 11.7256 53.8623 15.0716C53.8623 18.4086 56.1512 21.9996 61.1751 21.9996C66.2034 21.9996 68.4934 18.4082 68.4934 15.0716C68.4934 11.7256 66.2034 8.12592 61.1751 8.12592Z" fill="#4F4E51"/>
<path d="M82.5791 19.6111L77.2051 14.1307L80.4823 11.239C81.3859 10.4422 82.232 9.78201 83.4363 9.78201H84.4467V8.51407H77.454V9.78201H78.8599C79.3906 9.78201 79.4833 9.85892 79.4833 10.0196C79.4833 10.1242 79.3581 10.2823 79.2292 10.3883L73.8017 15.1654V8.51407H69.2188V9.78201H70.8233C71.3633 9.78201 71.604 10.053 71.604 10.6575V19.4857C71.604 20.0625 71.3555 20.3418 70.847 20.3418H69.2188V21.6108H76.1515V20.3418H74.5669C74.0525 20.3418 73.8013 20.0625 73.8013 19.4857V17.068L75.6681 15.4306L79.3375 19.2862C79.4545 19.4098 79.5635 19.5151 79.658 19.6072C79.8545 19.798 79.9992 19.9364 79.9992 20.0471C79.9992 20.3277 79.398 20.3418 79.278 20.3418H77.6712V21.6108H85.1808V20.3418H84.1723C83.5699 20.3418 83.0777 20.1164 82.5784 19.6111H82.5791Z" fill="#4F4E51"/>
<path d="M98.5029 9.78237H100.151C100.697 9.78237 100.93 10.0447 100.93 10.6579V14.3406H94.0766V10.6579C94.0766 10.053 94.317 9.78237 94.8565 9.78237H96.5047V8.51407H89.4692V9.78237H91.0989C91.6448 9.78237 91.8793 10.0447 91.8793 10.6579V19.486C91.8793 20.0621 91.6296 20.3414 91.1181 20.3414H89.4692V21.6111H96.5047V20.3414H94.837C94.3247 20.3414 94.0762 20.0621 94.0762 19.486V15.6125H100.93V19.486C100.93 20.0621 100.681 20.3414 100.167 20.3414H98.5026V21.6111H105.535V20.3414H103.887C103.377 20.3414 103.128 20.0621 103.128 19.486V10.6579C103.128 10.0447 103.362 9.78237 103.91 9.78237H105.535V8.51407H98.5026V9.78237H98.5029Z" fill="#4F4E51"/>
<path d="M113.539 20.6932C109.911 20.6932 108.619 17.7897 108.619 15.0712C108.619 12.3466 109.911 9.43627 113.539 9.43627C117.164 9.43627 118.456 12.347 118.456 15.0712C118.456 17.7893 117.164 20.6932 113.539 20.6932ZM113.539 8.12592C108.51 8.12592 106.219 11.7256 106.219 15.0716C106.219 18.4086 108.51 21.9996 113.539 21.9996C118.564 21.9996 120.854 18.4082 120.854 15.0716C120.854 11.7256 118.564 8.12592 113.539 8.12592Z" fill="#4F4E51"/>
<path d="M142.7 13.9002C140.63 13.5336 138.842 13.217 138.842 11.6658C138.842 10.2071 139.861 9.43579 141.79 9.43579C143.765 9.43579 145.872 10.6854 146.133 13.4768L146.144 13.5962H147.436V8.41979H146.301L145.768 9.4933C144.673 8.54809 143.388 8.12616 141.632 8.12616C138.099 8.12616 136.843 10.1481 136.843 11.88C136.843 14.9888 139.667 15.4912 142.157 15.9344C144.289 16.3139 146.132 16.6402 146.132 18.3822C146.132 20.526 143.598 20.6928 142.823 20.6928C140.426 20.6928 138.415 18.7779 138.147 16.242L138.132 16.1231H136.843V21.7084H138.103L138.637 20.3981C139.78 21.4608 141.161 21.9988 142.747 21.9988C146.12 21.9988 148.132 20.4875 148.132 17.957C148.132 14.8641 145.246 14.352 142.699 13.9002H142.7Z" fill="#4F4E51"/>
<path d="M157.307 9.78237C160.106 9.78237 160.298 11.124 160.396 13.4913L160.402 13.6168H161.699V8.51407H148.738V9.78237H150.264C150.805 9.78237 151.046 10.053 151.046 10.6579V19.486C151.046 20.0621 150.797 20.3414 150.285 20.3414H148.679V21.6111H161.699V16.1422H160.399L160.395 16.2687C160.297 19.0206 160.123 20.3414 157.306 20.3414H153.244V15.4389H154.76C156.203 15.4389 156.396 15.7336 156.475 18.0776L156.48 18.2041H157.78V11.6322H156.48L156.475 11.758C156.396 13.8748 156.188 14.1677 154.76 14.1677H153.244V9.78237H157.306H157.307Z" fill="#4F4E51"/>
<path d="M129.798 9.78237H131.427C131.975 9.78237 132.207 10.0447 132.207 10.6579V16.7377C132.207 19.0425 131.632 20.5775 128.82 20.5775C126.601 20.5775 125.614 19.5662 125.614 17.2991V8.51407H121.086V9.78237H122.634C123.182 9.78237 123.415 10.0447 123.415 10.6579V17.7239C123.415 20.4417 125.175 21.9996 128.244 21.9996C132.257 21.9996 133.751 20.5222 133.751 16.5458V10.6579C133.751 10.0447 133.984 9.78237 134.531 9.78237H136.094V8.51407H129.798V9.78237H129.798Z" fill="#4F4E51"/>
</svg>
