<svg width="300" height="42" viewBox="0 0 300 42" fill="none" xmlns="http://www.w3.org/2000/svg">
<path d="M36.3856 26.288C34.8316 26.288 33.5669 26.762 32.8509 27.1051C32.8543 26.0251 32.8543 25.3711 32.8543 25.3149C32.8543 25.0649 32.9852 25.0937 32.9852 25.0937C33.2955 25.0649 33.5484 24.7314 33.5484 24.4465C33.5484 24.1712 33.4017 24.1226 33.2441 24.139C33.1057 24.1514 33.0626 24.139 33.0626 24.139H19.8084H18.3894H5.1393C5.1393 24.139 5.09476 24.1514 4.95911 24.139C4.79878 24.1219 4.65421 24.1705 4.65421 24.4465C4.65421 24.7314 4.9084 25.0656 5.21672 25.0937C5.21672 25.0937 5.34759 25.0649 5.34759 25.3149C5.34759 25.3711 5.34759 26.0258 5.34896 27.1051C4.63297 26.762 3.36819 26.288 1.81084 26.288C-0.633773 26.288 -0.326826 27.9618 1.1024 27.9618C2.52682 27.9618 3.23869 28.2987 3.84985 29.0493C4.26299 29.5547 4.99473 29.6821 5.42843 29.7156C5.73881 33.2795 6.69322 36.9139 6.69322 36.9139C6.69322 36.9139 7.07211 37.9035 7.4599 38.4836C7.723 38.8815 8.41637 40.2107 11.516 40.7175C13.3851 41.0339 14.2895 41.1873 19.0979 41.1887C23.9104 41.1873 24.8134 41.0339 26.6852 40.7175C29.7828 40.2107 30.4761 38.8821 30.7406 38.4836C31.127 37.9035 31.5011 36.9139 31.5011 36.9139C31.5011 36.9139 32.4624 33.2788 32.768 29.7156C33.2017 29.6821 33.9334 29.5547 34.3459 29.0493C34.9598 28.2987 35.673 27.9618 37.0995 27.9618C38.526 27.9618 38.8309 26.288 36.3842 26.288H36.3856Z" fill="#72645B"/>
<path d="M23.0389 10.0649C22.6587 11.9763 22.0222 12.4954 21.7317 12.4427C21.4932 12.4317 21.2363 12.1537 21.2068 11.8661C21.0438 10.3567 21.7495 9.46161 21.8947 9.2952C22.3435 8.77883 22.7731 8.43094 23.289 8.10838C23.2657 8.95141 23.1218 9.65131 23.0389 10.0643V10.0649ZM29.8843 7.74747C28.7565 6.35863 26.6298 5.48136 24.2489 6.40178C23.9824 4.69586 23.2205 3.25428 21.9626 2.08801C20.5553 0.788196 18.6615 0.0643268 16.6821 0.00748558V-0.000732422H16.6143C16.6026 -0.000732422 16.591 0.00200691 16.5787 0.00200691C16.567 0.00200691 16.556 -0.000732422 16.5478 -0.000732422L16.5471 0.00337658C10.981 0.0704903 7.65869 4.10895 7.65869 8.15084C7.65869 12.0832 10.8042 15.9792 16.1045 16.2483V15.0005C12.2533 14.7033 9.919 11.5031 9.919 8.15153C9.919 4.64792 12.4719 1.28128 16.6259 1.25183H16.6828V1.2395C18.258 1.15047 19.8578 1.60931 21.2336 2.88105C22.5696 4.11923 23.0931 5.5834 23.2458 6.88527C22.4065 7.34959 21.757 7.81322 21.0835 8.58913C20.8088 8.90827 19.7947 9.93415 20.1353 11.9804C20.2709 12.8036 20.904 13.4843 21.6858 13.5227C22.3387 13.5542 23.5172 13.1666 24.0982 10.2711C24.2928 9.30273 24.3791 8.38437 24.3537 7.5249C26.4791 6.55381 28.196 7.37972 29.0477 8.42683C29.8356 9.39176 30.2988 11.073 29.0189 12.6269C27.565 14.3773 25.4507 15.5347 23.7542 16.4647C21.9468 17.4612 20.5176 18.2439 20.3703 19.4355C20.2908 20.1026 20.6286 20.771 21.3987 21.4736L21.7947 21.8352L22.523 21.0456L22.1277 20.6785C21.6364 20.2306 21.4055 19.8581 21.4405 19.5656C21.5179 18.9219 22.8567 18.1864 24.2708 17.4105C26.0495 16.4346 28.2618 15.2238 29.8438 13.3124C31.2203 11.6476 31.2381 9.41299 29.8849 7.74884L29.8843 7.74747Z" fill="#D46229"/>
<path d="M66.1978 32.0578C65.7695 36.7434 63.0755 39.4321 58.8064 39.4321C51.1944 39.4321 50.6044 31.2312 50.6044 28.7192C50.6044 23.8199 52.0268 17.9797 58.8064 17.9797C62.8679 17.9797 65.8264 21.1361 66.3485 26.0189L66.3718 26.2415H68.7643V16.0436H66.615L65.7216 18.2372C63.5695 16.46 60.9968 15.4841 58.4391 15.4841C50.7463 15.4841 46.1558 20.4327 46.1558 28.7192C46.1558 36.9852 50.6099 41.9208 58.0685 41.9208C64.8672 41.9208 68.6691 38.524 69.0617 32.0948L69.0774 31.8304H66.2197L66.1984 32.0578H66.1978Z" fill="#4F4E51"/>
<path d="M84.2714 39.4314C77.5432 39.4314 75.1472 33.8986 75.1472 28.7185C75.1472 23.5268 77.5432 17.981 84.2714 17.981C91.0002 17.981 93.3976 23.5275 93.3976 28.7185C93.3976 33.8979 91.0002 39.4314 84.2714 39.4314ZM84.2714 15.4841C74.9458 15.4841 70.6992 22.3434 70.6992 28.7192C70.6992 35.0779 74.9458 41.9208 84.2714 41.9208C93.5983 41.9208 97.8476 35.0772 97.8476 28.7192C97.8476 22.3434 93.5983 15.4841 84.2714 15.4841Z" fill="#4F4E51"/>
<path d="M113.497 39.4314C106.773 39.4314 104.376 33.8986 104.376 28.7185C104.376 23.5268 106.773 17.981 113.497 17.981C120.226 17.981 122.625 23.5275 122.625 28.7185C122.625 33.8979 120.225 39.4314 113.497 39.4314ZM113.497 15.4841C104.176 15.4841 99.9297 22.3434 99.9297 28.7192C99.9297 35.0779 104.176 41.9208 113.497 41.9208C122.826 41.9208 127.075 35.0772 127.075 28.7192C127.075 22.3434 122.826 15.4841 113.497 15.4841Z" fill="#4F4E51"/>
<path d="M153.208 37.3695L143.237 26.9265L149.317 21.4163C150.994 19.898 152.564 18.64 154.798 18.64H156.673V16.2239H143.699V18.64H146.308C147.292 18.64 147.464 18.7865 147.464 19.0926C147.464 19.2919 147.232 19.5933 146.993 19.7953L136.923 28.8981V16.2239H128.42V18.64H131.397C132.399 18.64 132.846 19.1563 132.846 20.3082V37.1305C132.846 38.2296 132.385 38.7617 131.441 38.7617H128.42V41.1799H141.283V38.7617H138.343C137.388 38.7617 136.922 38.2296 136.922 37.1305V32.5236L140.386 29.4035L147.194 36.7504C147.411 36.986 147.613 37.1866 147.788 37.3619C148.153 37.7256 148.421 37.9893 148.421 38.2002C148.421 38.735 147.306 38.7617 147.083 38.7617H144.102V41.1799H158.035V38.7617H156.163C155.046 38.7617 154.133 38.3324 153.206 37.3695H153.208Z" fill="#4F4E51"/>
<path d="M182.751 18.6407H185.809C186.821 18.6407 187.254 19.1406 187.254 20.3089V27.3264H174.539V20.3089C174.539 19.1563 174.985 18.6407 175.986 18.6407H179.044V16.2239H165.991V18.6407H169.015C170.027 18.6407 170.463 19.1406 170.463 20.3089V37.1312C170.463 38.2289 169.999 38.7611 169.05 38.7611H165.991V41.1806H179.044V38.7611H175.95C175 38.7611 174.538 38.2289 174.538 37.1312V29.75H187.253V37.1312C187.253 38.2289 186.792 38.7611 185.839 38.7611H182.751V41.1806H195.799V38.7611H192.74C191.793 38.7611 191.332 38.2289 191.332 37.1312V20.3089C191.332 19.1406 191.767 18.6407 192.783 18.6407H195.799V16.2239H182.751V18.6407H182.751Z" fill="#4F4E51"/>
<path d="M210.647 39.4314C203.916 39.4314 201.52 33.8986 201.52 28.7185C201.52 23.5268 203.916 17.981 210.647 17.981C217.373 17.981 219.77 23.5275 219.77 28.7185C219.77 33.8979 217.373 39.4314 210.647 39.4314ZM210.647 15.4841C201.318 15.4841 197.067 22.3434 197.067 28.7192C197.067 35.0779 201.318 41.9208 210.647 41.9208C219.971 41.9208 224.219 35.0772 224.219 28.7192C224.219 22.3434 219.971 15.4841 210.647 15.4841Z" fill="#4F4E51"/>
<path d="M264.748 26.4872C260.908 25.7886 257.59 25.1853 257.59 22.2295C257.59 19.4498 259.481 17.9802 263.061 17.9802C266.725 17.9802 270.634 20.3613 271.118 25.6804L271.138 25.9078H273.535V16.0441H271.43L270.44 18.0897C268.409 16.2886 266.025 15.4846 262.768 15.4846C256.212 15.4846 253.883 19.3375 253.883 22.6377C253.883 28.5615 259.121 29.5189 263.741 30.3633C267.696 31.0865 271.116 31.7083 271.116 35.0277C271.116 39.1127 266.416 39.4305 264.977 39.4305C260.529 39.4305 256.799 35.7817 256.301 30.9495L256.275 30.7228H253.883V41.3658H256.22L257.211 38.8689C259.332 40.894 261.894 41.9192 264.836 41.9192C271.094 41.9192 274.826 39.0395 274.826 34.2176C274.826 28.3239 269.472 27.348 264.747 26.4872H264.748Z" fill="#4F4E51"/>
<path d="M291.849 18.6407C297.043 18.6407 297.399 21.1971 297.58 25.7081L297.591 25.9471H299.999V16.2239H275.951V18.6407H278.783C279.788 18.6407 280.234 19.1563 280.234 20.3089V37.1312C280.234 38.2289 279.773 38.7611 278.822 38.7611H275.842V41.1806H299.999V30.7595H297.587L297.58 31.0005C297.397 36.2443 297.075 38.7611 291.848 38.7611H284.311V29.4192H287.124C289.802 29.4192 290.16 29.9808 290.307 34.4473L290.316 34.6884H292.727V22.1655H290.316L290.307 22.4052C290.16 26.4389 289.773 26.997 287.124 26.997H284.311V18.6407H291.848H291.849Z" fill="#4F4E51"/>
<path d="M240.813 18.6407H243.834C244.851 18.6407 245.282 19.1406 245.282 20.3089V31.8942C245.282 36.2861 244.214 39.211 238.999 39.211C234.882 39.211 233.05 37.2839 233.05 32.9639V16.2239H224.649V18.6407H227.522C228.537 18.6407 228.969 19.1406 228.969 20.3089V33.7734C228.969 38.9521 232.235 41.9209 237.929 41.9209C245.375 41.9209 248.146 39.1055 248.146 31.5285V20.3089C248.146 19.1406 248.578 18.6407 249.593 18.6407H252.493V16.2239H240.812V18.6407H240.813Z" fill="#4F4E51"/>
</svg>
