<svg width="250" height="35" viewBox="0 0 250 35" fill="none" xmlns="http://www.w3.org/2000/svg">
<path d="M30.3213 21.9476C29.0264 21.9476 27.9724 22.3433 27.3757 22.6297C27.3786 21.7281 27.3786 21.182 27.3786 21.1351C27.3786 20.9265 27.4876 20.9505 27.4876 20.9505C27.7463 20.9265 27.957 20.648 27.957 20.4101C27.957 20.1803 27.8348 20.1397 27.7035 20.1534C27.5881 20.1637 27.5522 20.1534 27.5522 20.1534H16.507H15.3245H4.28275C4.28275 20.1534 4.24564 20.1637 4.13259 20.1534C3.99898 20.1391 3.87851 20.1797 3.87851 20.4101C3.87851 20.648 4.09034 20.927 4.34727 20.9505C4.34727 20.9505 4.45632 20.9265 4.45632 21.1351C4.45632 21.182 4.45632 21.7286 4.45746 22.6297C3.86081 22.3433 2.80682 21.9476 1.50903 21.9476C-0.528144 21.9476 -0.272355 23.345 0.918664 23.345C2.10569 23.345 2.69891 23.6263 3.20821 24.253C3.55249 24.6749 4.16228 24.7813 4.52369 24.8093C4.78234 27.7848 5.57768 30.8191 5.57768 30.8191C5.57768 30.8191 5.89342 31.6453 6.21659 32.1296C6.43583 32.4618 7.01364 33.5716 9.59666 33.9947C11.1542 34.2589 11.9079 34.3869 15.9149 34.3881C19.9253 34.3869 20.6778 34.2589 22.2377 33.9947C24.819 33.5716 25.3968 32.4624 25.6172 32.1296C25.9392 31.6453 26.2509 30.8191 26.2509 30.8191C26.2509 30.8191 27.052 27.7842 27.3066 24.8093C27.6681 24.7813 28.2778 24.6749 28.6216 24.253C29.1331 23.6263 29.7275 23.345 30.9162 23.345C32.105 23.345 32.359 21.9476 30.3202 21.9476H30.3213Z" fill="#72645B"/>
<path d="M19.1992 8.40306C18.8823 9.99886 18.3519 10.4323 18.1098 10.3882C17.9111 10.3791 17.697 10.1469 17.6724 9.90681C17.5366 8.64664 18.1246 7.89934 18.2457 7.7604C18.6197 7.32929 18.9777 7.03884 19.4076 6.76953C19.3882 7.47338 19.2683 8.05772 19.1992 8.40249V8.40306ZM24.9036 6.46821C23.9638 5.30867 22.1916 4.57624 20.2075 5.3447C19.9854 3.92043 19.3505 2.71687 18.3022 1.74315C17.1295 0.657941 15.5513 0.0535852 13.9018 0.00612875V-0.000732422H13.8453C13.8356 -0.000732422 13.8259 0.00155464 13.8156 0.00155464C13.8059 0.00155464 13.7968 -0.000732422 13.7899 -0.000732422L13.7894 0.00269817C9.1509 0.0587311 6.38232 3.43043 6.38232 6.80498C6.38232 10.0881 9.00359 13.3408 13.4205 13.5655V12.5238C10.2112 12.2756 8.26591 9.60377 8.26591 6.80555C8.26591 3.88041 10.3933 1.06961 13.855 1.04503H13.9024V1.03473C15.215 0.960404 16.5482 1.34349 17.6947 2.40525C18.8081 3.439 19.2443 4.66144 19.3716 5.74836C18.6722 6.13602 18.1309 6.5231 17.5697 7.17091C17.3407 7.43735 16.4957 8.29386 16.7795 10.0023C16.8925 10.6896 17.4201 11.2579 18.0715 11.2899C18.6157 11.3162 19.5977 10.9926 20.0819 8.57517C20.244 7.76669 20.316 6.99995 20.2949 6.28239C22.066 5.47163 23.4968 6.16118 24.2065 7.0354C24.8631 7.84102 25.2491 9.2447 24.1825 10.542C22.9709 12.0035 21.209 12.9697 19.7953 13.7462C18.2891 14.5781 17.0981 15.2317 16.9753 16.2265C16.9091 16.7834 17.1906 17.3415 17.8323 17.9281L18.1623 18.23L18.7693 17.5707L18.4398 17.2643C18.0304 16.8903 17.838 16.5793 17.8671 16.3352C17.9317 15.7977 19.0473 15.1836 20.2258 14.5358C21.708 13.721 23.5516 12.7102 24.8699 11.1144C26.017 9.72441 26.0318 7.85875 24.9042 6.46936L24.9036 6.46821Z" fill="#D46229"/>
<path d="M55.165 26.7648C54.8082 30.6768 52.5632 32.9215 49.0056 32.9215C42.6622 32.9215 42.1706 26.0746 42.1706 23.9774C42.1706 19.887 43.3559 15.011 49.0056 15.011C52.3902 15.011 54.8556 17.6463 55.2907 21.7229L55.3101 21.9088H57.3039V13.3946H55.5128L54.7682 15.226C52.9749 13.7423 50.8309 12.9275 48.6995 12.9275C42.2888 12.9275 38.4634 17.0591 38.4634 23.9774C38.4634 30.8786 42.1752 34.9993 48.3906 34.9993C54.0562 34.9993 57.2245 32.1634 57.5517 26.7956L57.5648 26.5749H55.1833L55.1656 26.7648H55.165Z" fill="#4F4E51"/>
<path d="M70.2261 32.9209C64.6193 32.9209 62.6227 28.3017 62.6227 23.9768C62.6227 19.6423 64.6193 15.0121 70.2261 15.0121C75.8335 15.0121 77.8313 19.6429 77.8313 23.9768C77.8313 28.3011 75.8335 32.9209 70.2261 32.9209ZM70.2261 12.9275C62.4548 12.9275 58.916 18.6543 58.916 23.9774C58.916 29.2862 62.4548 34.9993 70.2261 34.9993C77.9986 34.9993 81.5397 29.2857 81.5397 23.9774C81.5397 18.6543 77.9986 12.9275 70.2261 12.9275Z" fill="#4F4E51"/>
<path d="M94.581 32.9209C88.9776 32.9209 86.9799 28.3017 86.9799 23.9768C86.9799 19.6423 88.9776 15.0121 94.581 15.0121C100.188 15.0121 102.187 19.6429 102.187 23.9768C102.187 28.3011 100.188 32.9209 94.581 32.9209ZM94.581 12.9275C86.8137 12.9275 83.2749 18.6543 83.2749 23.9774C83.2749 29.2862 86.8137 34.9993 94.581 34.9993C102.355 34.9993 105.896 29.2857 105.896 23.9774C105.896 18.6543 102.355 12.9275 94.581 12.9275Z" fill="#4F4E51"/>
<path d="M127.673 31.1993L119.364 22.4805L124.431 17.88C125.828 16.6124 127.136 15.5621 128.998 15.5621H130.56V13.5449H119.749V15.5621H121.923C122.743 15.5621 122.886 15.6845 122.886 15.94C122.886 16.1064 122.693 16.358 122.494 16.5267L114.102 24.1266V13.5449H107.017V15.5621H109.497C110.332 15.5621 110.704 15.9932 110.704 16.9549V30.9998C110.704 31.9174 110.32 32.3617 109.534 32.3617H107.017V34.3806H117.735V32.3617H115.285C114.49 32.3617 114.102 31.9174 114.102 30.9998V27.1535L116.988 24.5485L122.661 30.6824C122.842 30.8791 123.01 31.0466 123.156 31.193C123.46 31.4966 123.684 31.7167 123.684 31.8929C123.684 32.3394 122.755 32.3617 122.569 32.3617H120.085V34.3806H131.695V32.3617H130.136C129.205 32.3617 128.444 32.0032 127.672 31.1993H127.673Z" fill="#4F4E51"/>
<path d="M152.293 15.5627H154.841C155.684 15.5627 156.045 15.9801 156.045 16.9555V22.8144H145.449V16.9555C145.449 15.9932 145.821 15.5627 146.655 15.5627H149.204V13.5449H138.326V15.5627H140.846C141.69 15.5627 142.052 15.9801 142.052 16.9555V31.0003C142.052 31.9169 141.666 32.3611 140.876 32.3611H138.326V34.3812H149.204V32.3611H146.625C145.833 32.3611 145.449 31.9169 145.449 31.0003V24.8378H156.045V31.0003C156.045 31.9169 155.66 32.3611 154.866 32.3611H152.292V34.3812H163.166V32.3611H160.617C159.828 32.3611 159.444 31.9169 159.444 31.0003V16.9555C159.444 15.9801 159.806 15.5627 160.653 15.5627H163.166V13.5449H152.292V15.5627H152.293Z" fill="#4F4E51"/>
<path d="M175.54 32.9209C169.93 32.9209 167.933 28.3017 167.933 23.9768C167.933 19.6423 169.931 15.0121 175.54 15.0121C181.145 15.0121 183.142 19.6429 183.142 23.9768C183.142 28.3011 181.145 32.9209 175.54 32.9209ZM175.54 12.9275C167.765 12.9275 164.223 18.6543 164.223 23.9774C164.223 29.2862 167.765 34.9993 175.54 34.9993C183.309 34.9993 186.849 29.2857 186.849 23.9774C186.849 18.6543 183.309 12.9275 175.54 12.9275Z" fill="#4F4E51"/>
<path d="M220.624 22.1137C217.423 21.5305 214.659 21.0268 214.659 18.559C214.659 16.2383 216.235 15.0112 219.218 15.0112C222.271 15.0112 225.529 16.9993 225.932 21.4402L225.948 21.63H227.946V13.3949H226.192L225.367 15.1027C223.675 13.599 221.688 12.9277 218.974 12.9277C213.511 12.9277 211.569 16.1445 211.569 18.8998C211.569 23.8456 215.935 24.6449 219.784 25.3499C223.08 25.9537 225.93 26.4728 225.93 29.2442C225.93 32.6548 222.013 32.9201 220.814 32.9201C217.108 32.9201 213.999 29.8737 213.584 25.8393L213.563 25.6501H211.569V34.5359H213.517L214.343 32.4512C216.11 34.1419 218.245 34.9978 220.697 34.9978C225.912 34.9978 229.022 32.5936 229.022 28.5678C229.022 23.6472 224.56 22.8324 220.623 22.1137H220.624Z" fill="#4F4E51"/>
<path d="M243.207 15.5627C247.536 15.5627 247.833 17.6971 247.984 21.4633L247.993 21.6628H249.999V13.5449H229.96V15.5627H232.319C233.156 15.5627 233.528 15.9932 233.528 16.9555V31.0003C233.528 31.9169 233.144 32.3611 232.351 32.3611H229.868V34.3812H249.999V25.6806H247.989L247.983 25.8819C247.831 30.2599 247.562 32.3611 243.207 32.3611H236.926V24.5617H239.27C241.501 24.5617 241.8 25.0305 241.922 28.7596L241.93 28.9608H243.939V18.5056H241.93L241.922 18.7057C241.8 22.0734 241.477 22.5394 239.27 22.5394H236.926V15.5627H243.207H243.207Z" fill="#4F4E51"/>
<path d="M200.678 15.5627H203.195C204.042 15.5627 204.402 15.9801 204.402 16.9555V26.628C204.402 30.2948 203.512 32.7368 199.166 32.7368C195.735 32.7368 194.208 31.1278 194.208 27.5211V13.5449H187.208V15.5627H189.602C190.448 15.5627 190.808 15.9801 190.808 16.9555V28.197C190.808 32.5206 193.529 34.9992 198.274 34.9992C204.48 34.9992 206.788 32.6487 206.788 26.3227V16.9555C206.788 15.9801 207.148 15.5627 207.994 15.5627H210.411V13.5449H200.677V15.5627H200.678Z" fill="#4F4E51"/>
</svg>
