<svg width="147" height="160" viewBox="0 0 147 160" fill="none" xmlns="http://www.w3.org/2000/svg">
<path d="M140.024 101.882C134.051 101.882 129.18 103.72 126.43 105.055C126.44 100.868 126.44 98.3354 126.44 98.1103C126.44 97.1398 126.939 97.2614 126.939 97.2614C128.138 97.1398 129.104 95.8526 129.104 94.7546C129.104 93.6786 128.542 93.4933 127.938 93.557C127.408 93.6069 127.232 93.557 127.232 93.557H76.2348H70.773H19.7743C19.7743 93.557 19.608 93.6069 19.0794 93.557C18.4697 93.4933 17.9016 93.6806 17.9016 94.7546C17.9016 95.8526 18.8755 97.1398 20.0732 97.2614C20.0732 97.2614 20.5681 97.1398 20.5681 98.1103C20.5681 98.3354 20.5681 100.868 20.578 105.055C17.8283 103.72 12.9565 101.882 6.97014 101.882C-2.43698 101.882 -1.25911 108.374 4.24025 108.374C9.72377 108.374 12.4636 109.672 14.8213 112.581C16.4089 114.55 19.2239 115.038 20.8908 115.163C22.0825 128.973 25.7606 143.065 25.7606 143.065C25.7606 143.065 27.2156 146.898 28.6964 149.158C29.7119 150.698 32.3864 155.849 44.3116 157.81C51.5114 159.026 54.9876 159.626 73.499 159.636C92.0064 159.626 95.4885 159.026 102.69 157.81C114.617 155.851 117.286 150.698 118.3 149.158C119.784 146.898 121.237 143.065 121.237 143.065C121.237 143.065 124.923 128.973 126.097 115.163C127.772 115.038 130.593 114.55 132.171 112.581C134.532 109.67 137.286 108.374 142.766 108.374C148.259 108.374 149.439 101.882 140.016 101.882H140.024Z" fill="#72645B"/>
<path d="M61.969 58.1377C47.1556 56.9959 38.1682 44.5857 38.1682 31.5956C38.1682 18.0176 47.991 4.96769 63.9764 4.8561H64.1941V0H63.9328C42.3491 0.135501 29.4678 15.8655 29.4678 31.5956C29.4678 46.8374 41.5652 61.9357 61.969 62.9759V58.1357V58.1377Z" fill="#D46229"/>
<path d="M89.6304 31.4242C87.6369 32.6716 85.9819 34.0366 84.2557 36.0352C83.6974 36.6689 80.9775 40.148 81.603 45.9985C81.7238 47.1084 82.7057 48.1904 83.6242 48.2283C84.7427 48.4295 87.1915 46.4169 88.6603 39.0023C88.983 37.4141 89.5274 34.7081 89.6304 31.4262V31.4242ZM63.6737 0C71.4753 0.113581 78.9761 2.94515 84.517 8.10015C89.3532 12.6115 92.2929 18.2069 93.3184 24.8086C102.472 21.2477 110.656 24.6472 114.995 30.0214C120.215 36.4815 120.148 45.1436 114.841 51.5978C108.765 59.0045 100.245 63.7072 93.3976 67.4773C87.9536 70.4842 82.8066 73.3317 82.5037 75.8265C82.3751 76.9683 83.254 78.413 85.1505 80.1486L86.6768 81.5714L83.8736 84.6301L82.3434 83.2313C79.3779 80.4993 78.0793 77.9188 78.3881 75.3304C78.9484 70.7074 84.4477 67.6766 91.4001 63.8188C97.9388 60.2201 106.077 55.7266 111.659 48.9416C116.597 42.9218 114.811 36.4078 111.784 32.6616C108.508 28.6026 101.888 25.4064 93.7143 29.1645C93.8113 32.4982 93.4827 36.0571 92.7304 39.8153C90.4994 51.0339 85.9661 52.5344 83.454 52.4069C80.4489 52.2733 78.008 49.6271 77.4775 46.4249C76.171 38.5041 80.0728 34.5208 81.1319 33.2953C83.7252 30.2764 86.2254 28.487 89.4443 26.6916C88.8484 21.6323 86.851 15.9652 81.698 11.1629C76.1769 6.01782 69.7194 4.28023 63.3926 4.83418L63.6757 0L63.6737 0Z" fill="#D46229"/>
</svg>
