<svg width="238" height="33" viewBox="0 0 238 33" fill="none" xmlns="http://www.w3.org/2000/svg">
<path d="M28.8659 20.6936C27.6331 20.6936 26.6297 21.0666 26.0617 21.3367C26.0644 20.4866 26.0644 19.9717 26.0644 19.9275C26.0644 19.7308 26.1682 19.7534 26.1682 19.7534C26.4145 19.7308 26.615 19.4682 26.615 19.244C26.615 19.0273 26.4987 18.989 26.3737 19.0019C26.2639 19.0116 26.2296 19.0019 26.2296 19.0019H15.7146H14.5889H4.07718C4.07718 19.0019 4.04185 19.0116 3.93422 19.0019C3.80703 18.9884 3.69234 19.0267 3.69234 19.244C3.69234 19.4682 3.894 19.7313 4.1386 19.7534C4.1386 19.7534 4.24242 19.7308 4.24242 19.9275C4.24242 19.9717 4.24242 20.4871 4.2435 21.3367C3.67549 21.0666 2.6721 20.6936 1.4366 20.6936C-0.502793 20.6936 -0.259282 22.0111 0.874568 22.0111C2.00461 22.0111 2.56936 22.2764 3.05421 22.8672C3.38197 23.2651 3.96249 23.3653 4.30656 23.3917C4.55279 26.1972 5.30995 29.0581 5.30995 29.0581C5.30995 29.0581 5.61054 29.8371 5.91819 30.2937C6.12691 30.607 6.67699 31.6533 9.13602 32.0523C10.6188 32.3013 11.3363 32.4221 15.151 32.4232C18.9689 32.4221 19.6853 32.3013 21.1703 32.0523C23.6277 31.6533 24.1777 30.6075 24.3875 30.2937C24.6941 29.8371 24.9909 29.0581 24.9909 29.0581C24.9909 29.0581 25.7535 26.1966 25.9959 23.3917C26.34 23.3653 26.9205 23.2651 27.2477 22.8672C27.7347 22.2764 28.3006 22.0111 29.4323 22.0111C30.5639 22.0111 30.8058 20.6936 28.8648 20.6936H28.8659Z" fill="#72645B"/>
<path d="M18.2773 7.92295C17.9757 9.42756 17.4707 9.83619 17.2402 9.79468C17.0511 9.78606 16.8473 9.56719 16.8239 9.34077C16.6945 8.15261 17.2544 7.44801 17.3696 7.31701C17.7256 6.91054 18.0664 6.63668 18.4757 6.38277C18.4573 7.04639 18.3431 7.59734 18.2773 7.92242V7.92295ZM23.708 6.09867C22.8133 5.00539 21.1261 4.31481 19.2373 5.03935C19.0258 3.69647 18.4214 2.56168 17.4234 1.64361C16.307 0.620409 14.8046 0.0505882 13.2343 0.0058435V-0.00062561H13.1805C13.1712 -0.00062561 13.162 0.00153076 13.1522 0.00153076C13.1429 0.00153076 13.1343 -0.00062561 13.1277 -0.00062561L13.1272 0.00260894C8.71137 0.05544 6.07568 3.23447 6.07568 6.41619C6.07568 9.51166 8.57113 12.5786 12.7761 12.7904V11.8082C9.72074 11.5742 7.86886 9.05505 7.86886 6.41673C7.86886 3.65873 9.89414 1.00856 13.1897 0.985374H13.2348V0.975671C14.4844 0.905589 15.7536 1.26678 16.8451 2.26787C17.905 3.24255 18.3203 4.39513 18.4415 5.41995C17.7756 5.78545 17.2604 6.15042 16.726 6.76121C16.5081 7.01243 15.7036 7.81999 15.9738 9.4308C16.0814 10.0788 16.5836 10.6146 17.2038 10.6448C17.7218 10.6696 18.6567 10.3645 19.1177 8.08522C19.272 7.32294 19.3405 6.60002 19.3204 5.92346C21.0065 5.15903 22.3687 5.80917 23.0443 6.63345C23.6694 7.39303 24.0368 8.7165 23.0215 9.9397C21.868 11.3176 20.1906 12.2287 18.8448 12.9608C17.4109 13.7452 16.2771 14.3613 16.1602 15.2994C16.0972 15.8244 16.3651 16.3506 16.9761 16.9037L17.2902 17.1883L17.868 16.5668L17.5544 16.2778C17.1647 15.9252 16.9815 15.632 17.0092 15.4018C17.0707 14.895 18.1328 14.3161 19.2546 13.7053C20.6657 12.9371 22.4208 11.9839 23.6759 10.4793C24.7679 9.1688 24.782 7.40974 23.7085 6.09974L23.708 6.09867Z" fill="#D46229"/>
<path d="M52.5172 25.2355C52.1775 28.9239 50.0402 31.0404 46.6533 31.0404C40.6145 31.0404 40.1465 24.5848 40.1465 22.6074C40.1465 18.7507 41.2749 14.1533 46.6533 14.1533C49.8755 14.1533 52.2226 16.638 52.6368 20.4817L52.6552 20.6569H54.5533V12.6293H52.8482L52.1394 14.356C50.4321 12.9571 48.3911 12.1889 46.362 12.1889C40.259 12.1889 36.6172 16.0844 36.6172 22.6074C36.6172 29.1142 40.1508 32.9995 46.0679 32.9995C51.4616 32.9995 54.4778 30.3256 54.7892 25.2646L54.8017 25.0565H52.5346L52.5177 25.2355H52.5172Z" fill="#4F4E51"/>
<path d="M66.8551 31.0399C61.5174 31.0399 59.6166 26.6845 59.6166 22.6068C59.6166 18.52 61.5174 14.1544 66.8551 14.1544C72.1933 14.1544 74.0952 18.5205 74.0952 22.6068C74.0952 26.684 72.1933 31.0399 66.8551 31.0399ZM66.8551 12.1889C59.4568 12.1889 56.0879 17.5884 56.0879 22.6074C56.0879 27.6129 59.4568 32.9995 66.8551 32.9995C74.2545 32.9995 77.6256 27.6123 77.6256 22.6074C77.6256 17.5884 74.2545 12.1889 66.8551 12.1889Z" fill="#4F4E51"/>
<path d="M90.0408 31.0399C84.7063 31.0399 82.8045 26.6845 82.8045 22.6068C82.8045 18.52 84.7063 14.1544 90.0408 14.1544C95.379 14.1544 97.2819 18.5205 97.2819 22.6068C97.2819 26.684 95.3784 31.0399 90.0408 31.0399ZM90.0408 12.1889C82.6463 12.1889 79.2773 17.5884 79.2773 22.6074C79.2773 27.6129 82.6463 32.9995 90.0408 32.9995C97.4418 32.9995 100.812 27.6123 100.812 22.6074C100.812 17.5884 97.4418 12.1889 90.0408 12.1889Z" fill="#4F4E51"/>
<path d="M121.545 29.4167L113.635 21.1961L118.458 16.8585C119.788 15.6633 121.034 14.673 122.806 14.673H124.293V12.7711H114.001V14.673H116.07C116.851 14.673 116.988 14.7884 116.988 15.0294C116.988 15.1863 116.804 15.4235 116.614 15.5825L108.625 22.7481V12.7711H101.88V14.673H104.242C105.036 14.673 105.391 15.0795 105.391 15.9863V29.2285C105.391 30.0938 105.025 30.5127 104.276 30.5127H101.88V32.4162H112.084V30.5127H109.752C108.994 30.5127 108.625 30.0938 108.625 29.2285V25.6021L111.372 23.146L116.773 28.9293C116.946 29.1148 117.106 29.2727 117.245 29.4107C117.534 29.697 117.747 29.9046 117.747 30.0706C117.747 30.4916 116.862 30.5127 116.686 30.5127H114.321V32.4162H125.374V30.5127H123.889C123.003 30.5127 122.278 30.1746 121.543 29.4167H121.545Z" fill="#4F4E51"/>
<path d="M144.983 14.6736H147.408C148.212 14.6736 148.555 15.0671 148.555 15.9868V21.5109H138.468V15.9868C138.468 15.0795 138.822 14.6736 139.616 14.6736H142.042V12.7711H131.687V14.6736H134.085C134.889 14.6736 135.234 15.0671 135.234 15.9868V29.2291C135.234 30.0932 134.866 30.5121 134.113 30.5121H131.687V32.4167H142.042V30.5121H139.587C138.833 30.5121 138.467 30.0932 138.467 29.2291V23.4187H148.555V29.2291C148.555 30.0932 148.188 30.5121 147.433 30.5121H144.982V32.4167H155.334V30.5121H152.907C152.156 30.5121 151.79 30.0932 151.79 29.2291V15.9868C151.79 15.0671 152.135 14.6736 152.942 14.6736H155.334V12.7711H144.982V14.6736H144.983Z" fill="#4F4E51"/>
<path d="M167.114 31.0399C161.773 31.0399 159.872 26.6845 159.872 22.6068C159.872 18.52 161.774 14.1544 167.114 14.1544C172.45 14.1544 174.351 18.5205 174.351 22.6068C174.351 26.684 172.45 31.0399 167.114 31.0399ZM167.114 12.1889C159.712 12.1889 156.34 17.5884 156.34 22.6074C156.34 27.6129 159.712 32.9995 167.114 32.9995C174.51 32.9995 177.88 27.6123 177.88 22.6074C177.88 17.5884 174.51 12.1889 167.114 12.1889Z" fill="#4F4E51"/>
<path d="M210.033 20.8503C206.987 20.3004 204.355 19.8255 204.355 17.4988C204.355 15.3106 205.855 14.1537 208.695 14.1537C211.601 14.1537 214.703 16.0281 215.087 20.2152L215.102 20.3942H217.004V12.6297H215.335L214.549 14.2399C212.938 12.8221 211.046 12.1892 208.462 12.1892C203.262 12.1892 201.414 15.2222 201.414 17.8201C201.414 22.4832 205.57 23.2369 209.234 23.9016C212.372 24.4708 215.085 24.9603 215.085 27.5733C215.085 30.789 211.356 31.0391 210.215 31.0391C206.687 31.0391 203.727 28.1669 203.332 24.363L203.311 24.1846H201.414V32.5626H203.268L204.054 30.5971C205.736 32.1912 207.769 32.9982 210.103 32.9982C215.068 32.9982 218.029 30.7313 218.029 26.9356C218.029 22.2961 213.781 21.5279 210.033 20.8503H210.033Z" fill="#4F4E51"/>
<path d="M231.533 14.6736C235.654 14.6736 235.937 16.686 236.08 20.237L236.089 20.4252H237.999V12.7711H218.921V14.6736H221.168C221.965 14.6736 222.319 15.0795 222.319 15.9868V29.2291C222.319 30.0932 221.953 30.5121 221.198 30.5121H218.834V32.4167H237.999V24.2134H236.086L236.08 24.4031C235.935 28.5309 235.679 30.5121 231.533 30.5121H225.553V23.1583H227.785C229.909 23.1583 230.194 23.6004 230.31 27.1164L230.317 27.3061H232.23V17.4483H230.317L230.31 17.637C230.194 20.8122 229.887 21.2516 227.785 21.2516H225.553V14.6736H231.533H231.533Z" fill="#4F4E51"/>
<path d="M191.045 14.6736H193.442C194.248 14.6736 194.591 15.0671 194.591 15.9868V25.1066C194.591 28.5638 193.743 30.8663 189.606 30.8663C186.34 30.8663 184.886 29.3493 184.886 25.9487V12.7711H178.222V14.6736H180.501C181.306 14.6736 181.649 15.0671 181.649 15.9868V26.5859C181.649 30.6625 184.24 32.9995 188.757 32.9995C194.665 32.9995 196.863 30.7833 196.863 24.8188V15.9868C196.863 15.0671 197.205 14.6736 198.011 14.6736H200.312V12.7711H191.045V14.6736H191.045Z" fill="#4F4E51"/>
</svg>
