<svg width="28" height="28" viewBox="0 0 28 28" fill="none" xmlns="http://www.w3.org/2000/svg">
<path fill-rule="evenodd" clip-rule="evenodd" d="M19.1021 0C16.3054 3.45713 14.4694 6.85006 13.539 10.7168C13.3025 10.8657 13.0567 11.0276 12.8002 11.2044C11.27 12.2593 9.46992 13.6389 7.82133 14.9263C8.10314 12.763 8.43736 10.6088 8.68088 8.19287C8.68088 8.19287 8.81268 6.76629 8.2135 6.51535C7.22342 6.10058 7.18046 7.09846 7.09639 7.78297C6.87897 9.5542 6.40779 13.4526 6.11673 16.291C4.59166 17.5547 2.04717 19.6079 0.768066 19.0242C0.911943 19.6319 1.4403 20.3187 3.47454 19.8696C4.25286 19.6977 5.06264 19.281 5.89843 18.7093C5.88382 18.9272 5.87427 19.1119 5.87096 19.2555C5.82303 21.3161 6.0387 24.4202 6.43409 25.3714C6.82958 26.3224 7.62641 27.5772 7.84208 27.399C8.05774 27.2207 7.47795 26.9169 7.31479 24.9949C7.13945 22.9295 7.25926 20.8731 7.39359 18.9964C7.4311 18.4725 7.4761 17.9581 7.52666 17.4495C9.33597 15.917 11.2443 13.9518 13.2032 12.3587C12.9431 13.8932 12.8144 15.508 12.8144 17.2335C12.8144 20.1924 12.9201 22.4115 13.0522 23.6003C13.1843 24.7891 13.6202 25.5222 14.1089 25.4496C14.5976 25.3769 14.7364 24.8155 14.71 23.9372C14.6861 23.1442 14.2264 16.076 15.1478 10.9381C15.7276 10.5698 16.3103 10.2555 16.8949 10.0156C19.9859 8.74754 22.02 9.38159 22.1257 9.11741C22.2314 8.85323 21.4388 8.43056 19.4575 8.74753C18.1184 8.96184 16.9694 9.02915 15.4048 9.71249C15.4343 9.5916 15.4644 9.47179 15.4959 9.35431C16.8697 4.22921 19.2737 1.24384 19.102 0L19.1021 0Z" fill="#D4CBC3"/>
<path fill-rule="evenodd" clip-rule="evenodd" d="M24.9784 13.0838L23.056 16.8274L19.2617 17.4346L22.2465 18.3957L20.6276 22.696L24.3208 19.3063L26.5974 20.47L25.5855 17.8899L27.9127 15.8663H25.2819L24.9784 13.0838Z" fill="#DAD0C7"/>
<path fill-rule="evenodd" clip-rule="evenodd" d="M21.0744 10.2023L20.0996 12.1004L18.1758 12.4082L19.6892 12.8956L18.8684 15.076L20.7408 13.3573L21.8951 13.9473L21.3822 12.6391L22.5621 11.6131H21.2283L21.0744 10.2023Z" fill="#DAD0C7"/>
<path fill-rule="evenodd" clip-rule="evenodd" d="M17.734 16.4905L17.0396 17.8427L15.6689 18.0621L16.7472 18.4093L16.1623 19.9626L17.4965 18.7382L18.3188 19.1586L17.9533 18.2265L18.7939 17.4956H17.8437L17.734 16.4905Z" fill="#DAD0C7"/>
</svg>
