<svg width="25" height="26" viewBox="0 0 25 26" fill="none" xmlns="http://www.w3.org/2000/svg">
<path d="M23.0519 16.1603C22.1045 16.1603 21.3318 16.4517 20.8956 16.6634C20.8972 15.9994 20.8972 15.5977 20.8972 15.5619C20.8972 15.408 20.9763 15.4273 20.9763 15.4273C21.1666 15.408 21.3199 15.2038 21.3199 15.0297C21.3199 14.859 21.2307 14.8296 21.1349 14.8397C21.0508 14.8476 21.0228 14.8397 21.0228 14.8397H12.9339H12.0676H3.97832C3.97832 14.8397 3.95194 14.8476 3.86811 14.8397C3.7714 14.8296 3.68128 14.8593 3.68128 15.0297C3.68128 15.2038 3.83576 15.408 4.02573 15.4273C4.02573 15.4273 4.10423 15.408 4.10423 15.5619C4.10423 15.5977 4.10423 15.9994 4.1058 16.6634C3.66966 16.4517 2.89691 16.1603 1.94737 16.1603C0.455252 16.1603 0.642081 17.19 1.51437 17.19C2.38415 17.19 2.81872 17.3958 3.19269 17.8572C3.44452 18.1695 3.89103 18.2469 4.15542 18.2668C4.34444 20.4572 4.92785 22.6924 4.92785 22.6924C4.92785 22.6924 5.15864 23.3005 5.39351 23.659C5.5546 23.9033 5.97881 24.7203 7.87034 25.0313C9.01235 25.2241 9.56373 25.3193 12.4999 25.3209C15.4355 25.3193 15.9878 25.2241 17.1302 25.0313C19.022 24.7206 19.4453 23.9033 19.6061 23.659C19.8416 23.3005 20.072 22.6924 20.072 22.6924C20.072 22.6924 20.6567 20.4572 20.8429 18.2668C21.1085 18.2469 21.556 18.1695 21.8062 17.8572C22.1808 17.3954 22.6176 17.19 23.4868 17.19C24.3581 17.19 24.5453 16.1603 23.0506 16.1603H23.0519Z" fill="#72645B"/>
<path d="M10.6713 9.2216C8.32169 9.04049 6.89614 7.07202 6.89614 5.01157C6.89614 2.85789 8.4542 0.787958 10.9897 0.770258H11.0243V0H10.9828C7.5593 0.0214926 5.51611 2.51653 5.51611 5.01157C5.51611 7.42918 7.43496 9.82403 10.6713 9.98901V9.22128V9.2216Z" fill="#D46229"/>
<path d="M15.0587 4.98439C14.7425 5.18225 14.48 5.39876 14.2062 5.71577C14.1177 5.81628 13.6862 6.36814 13.7854 7.29611C13.8046 7.47216 13.9603 7.64379 14.106 7.64979C14.2834 7.68172 14.6719 7.36249 14.9049 6.1864C14.956 5.93449 15.0424 5.50527 15.0587 4.98471V4.98439ZM10.9416 0C12.179 0.0180159 13.3688 0.467149 14.2477 1.28482C15.0148 2.00039 15.481 2.88791 15.6437 3.93505C17.0956 3.37023 18.3937 3.90945 19.082 4.76188C19.91 5.78657 19.8993 7.16052 19.0575 8.18427C18.0938 9.35909 16.7424 10.105 15.6563 10.703C14.7928 11.18 13.9764 11.6316 13.9283 12.0273C13.9079 12.2084 14.0473 12.4376 14.3481 12.7129L14.5902 12.9386L14.1456 13.4237L13.9029 13.2018C13.4325 12.7685 13.2265 12.3592 13.2755 11.9486C13.3644 11.2154 14.2367 10.7346 15.3394 10.1227C16.3766 9.55189 17.6674 8.83916 18.5529 7.76295C19.336 6.8081 19.0528 5.77488 18.5727 5.18067C18.053 4.53684 17.003 4.02987 15.7065 4.62597C15.7219 5.15475 15.6698 5.71925 15.5504 6.31535C15.1966 8.09482 14.4775 8.33282 14.079 8.31259C13.6024 8.29141 13.2152 7.87167 13.1311 7.36375C12.9238 6.10738 13.5427 5.47556 13.7107 5.28118C14.1221 4.80234 14.5186 4.51851 15.0292 4.23373C14.9347 3.43123 14.6179 2.53234 13.8005 1.77061C12.9248 0.954525 11.9005 0.678914 10.897 0.766781L10.9419 0L10.9416 0Z" fill="#D46229"/>
</svg>
