<svg width="25" height="25" viewBox="0 0 25 25" fill="none" xmlns="http://www.w3.org/2000/svg">
<path fill-rule="evenodd" clip-rule="evenodd" d="M5.60502 21.6969C6.74548 21.9377 7.80839 22.7156 9.02089 23.0655C9.42575 23.1824 12.9064 23.8037 12.8811 23.8983C12.7457 24.4046 9.33605 23.6294 8.87571 23.4852C7.53245 23.0644 6.63415 22.6808 5.60502 21.6968V21.6969ZM7.88703 19.2571C8.16586 18.8456 8.45197 18.999 8.84769 19.1586C9.85766 19.5659 10.1708 19.1259 11.1904 19.8279C11.3567 19.9424 11.974 20.3159 12.0077 20.478C12.0974 20.9083 11.2822 20.5665 11.1474 20.5058C10.6231 20.2699 9.1897 19.9345 8.86507 19.7611C8.51371 19.5733 8.26077 19.4261 7.88703 19.2572V19.2571ZM10.6735 18.4276C10.6866 17.9341 11.1421 18.0084 11.536 18.0363C11.7538 18.0518 12.6199 18.0459 12.6339 18.2866C12.6556 18.66 11.986 18.6718 11.7538 18.681C11.2175 18.7019 11.0789 18.8074 10.6735 18.4276ZM7.35217 17.9884C7.48087 17.4972 8.05392 17.7608 8.33714 17.9574C8.67064 18.1889 9.40508 17.9138 9.39738 18.3749C9.38997 18.8161 8.64736 18.6569 8.40843 18.4245C7.84713 17.8785 7.75119 18.379 7.35217 17.9883V17.9884ZM17.3013 18.35L16.6669 18.875C14.3477 21.2549 10.8176 19.3688 13.1952 19.2174C15.6516 19.061 16.3218 18.1856 17.2751 17.7817C17.8397 17.5425 17.7605 17.9916 17.3013 18.3501V18.35ZM2.0818 16.8173C2.02796 16.5854 2.10591 16.2798 2.38309 16.304C2.68135 16.3301 2.65608 16.5786 2.73485 16.8073C2.82317 17.0638 3.2623 17.6853 3.43502 17.918C3.57629 18.1084 3.53378 18.3758 3.30776 18.2404C3.14026 18.14 3.15351 17.9705 2.8777 17.7934C2.77764 17.7291 2.09114 16.8576 2.0818 16.8172V16.8173ZM9.28517 16.6736C9.36057 16.0718 10.0647 16.4865 10.3641 16.6524C10.6963 16.8364 11.5124 16.9511 11.5956 17.071C11.478 17.427 9.93602 17.4333 9.28517 16.6736ZM20.6754 18.6146L19.996 19.2049C19.8093 19.4026 19.3296 19.9119 19.0175 19.7456C18.7633 19.6102 19.4665 19.1025 19.5824 18.9872C21.3031 17.2751 21.1815 16.5629 21.6281 16.0275C21.9943 15.5883 22.0231 16.3491 21.8831 16.707C21.6646 17.2652 21.372 18.5405 20.6754 18.6146ZM9.24877 15.0118C9.40109 14.3829 9.81336 15.0428 10.4022 15.1025C10.7527 15.138 10.858 15.0919 11.1526 15.3221C11.2789 15.4208 11.6124 15.6389 11.6473 15.7782C11.7953 16.3681 10.5503 15.8821 10.3631 15.8104C9.8751 15.6237 9.63164 15.3605 9.24877 15.0117V15.0118ZM16.1946 14.6418C16.0967 14.3847 16.3424 14.1166 16.4322 13.8698C16.8298 12.7778 17.336 13.7797 16.8226 14.2616C16.5818 14.4876 16.5082 14.7706 16.1945 14.6418H16.1946ZM6.41912 13.3039C6.39138 13.0411 6.39261 11.9672 6.47276 11.7463C6.70097 11.1173 6.96318 11.9853 7.00041 12.2205C7.15788 13.2162 7.22141 13.9514 7.58574 14.9152C7.70009 15.2176 8.12596 15.6926 8.08208 15.919C7.91938 16.7583 6.57255 14.7608 6.41919 13.3039H6.41912ZM11.1815 13.1576C11.011 11.9893 14.0436 11.5142 13.9414 13.1024C13.8789 14.0734 12.2566 14.4103 11.6714 13.9213C11.5425 13.8136 11.203 13.3047 11.1815 13.1576ZM14.8283 11.7425C14.727 11.2003 15.1857 11.216 15.5255 11.6055C15.7816 11.899 16.0659 12.2757 16.0815 12.6794C16.1048 13.2791 15.2841 14.3774 14.8077 14.7162C14.6645 14.818 13.981 15.2565 13.8736 14.9594C13.7139 14.5178 14.7484 14.2977 15.07 13.0281C15.2812 12.1947 14.9112 12.1862 14.8283 11.7425ZM4.72705 11.0594C4.65411 11.3224 4.4327 11.5118 4.37089 11.7772C4.30551 12.058 4.36065 12.5522 4.35193 12.8648C4.32199 13.9469 3.85993 13.6992 3.88451 12.5717C3.90189 11.7741 4.18965 11.5552 4.25592 10.7543C4.34383 9.69269 4.94228 10.2834 4.72705 11.0594ZM10.6518 10.2373L10.6321 10.2784C11.3855 9.77921 11.5024 9.62787 12.4794 9.61861C13.855 9.60555 14.0148 9.91224 13.4566 9.95688C12.637 10.0224 12.2853 9.89144 11.4765 10.3043C10.1899 10.961 9.80746 12.2457 9.99137 13.6113C10.1149 14.5283 9.44175 13.8242 9.25193 13.4279C8.67023 12.213 9.59689 10.7998 10.6518 10.2374V10.2373ZM20.8707 9.54667C21.6915 9.26493 22.051 11.7376 21.5586 13.3761C21.2089 14.5393 21.1606 11.9216 21.1603 11.8889C21.1545 11.0303 21.1486 10.373 20.8707 9.54667ZM15.5479 9.10751C16.2218 8.79916 17.3587 10.1942 17.6671 10.7153C17.924 11.1494 18.1989 11.7408 18.2465 12.2437C18.2814 12.6133 18.3237 13.9417 18.0983 14.204C17.6928 14.6756 17.9335 13.0509 17.9332 13.0324C17.8963 11.2402 16.6598 10.309 15.548 9.10751H15.5479ZM11.8916 8.61949C12.0247 8.29891 13.125 8.18329 13.15 8.57705C13.1715 8.91629 12.4277 8.90213 12.1749 8.8277C11.9369 8.7577 11.9612 8.67297 11.8915 8.61949H11.8916ZM6.22071 9.09873L6.27277 8.95907C7.08873 7.58553 7.51748 8.15226 7.44166 8.4658C7.38569 8.69723 6.48251 9.76187 6.24001 10.3083C5.51828 11.9345 5.3711 13.6756 6.21364 15.309C6.3409 15.5558 7.1015 16.913 6.06996 16.1431C5.33553 15.5949 5.13458 14.95 5.09221 14.0639C5.00904 12.3243 5.10326 10.5236 6.22078 9.09873H6.22071ZM8.79234 8.92459C9.14925 8.84263 9.2272 8.51686 9.5287 8.47775C9.68391 8.39247 10.399 7.87024 10.4931 8.1929C10.5515 8.39351 9.9716 8.86896 9.82222 9.01954C8.8582 9.99102 8.34669 11.9247 8.09835 12.0795C7.70009 12.3276 7.73834 11.3197 7.76197 11.1582C7.8244 10.7317 7.94953 10.2578 8.03366 9.82413C8.14594 9.24475 8.27815 9.14932 8.79247 8.92459H8.79234ZM9.83548 6.86296C11.6045 6.00322 12.5925 6.42511 14.4169 7.01942C15.7667 7.45914 17.1562 8.33843 18.1746 9.33093C21.1443 12.2249 19.1155 16.0842 16.9342 16.8404C16.4671 17.0023 16.1304 16.9218 16.6463 16.4813C17.2128 15.9973 17.8284 15.7903 18.2977 15.1495C19.1838 13.9396 19.0667 11.6767 18.2855 10.4427C16.5171 7.64966 12.8456 7.33475 9.83548 6.86303V6.86296ZM17.7627 6.66781C18.3644 6.44239 18.8413 7.2966 19.1554 7.71158C19.4036 8.03955 20.1034 9.10571 19.9788 9.50258C19.8174 10.0169 19.0064 8.3007 18.9508 8.20831C18.6586 7.72208 18.1238 7.15279 17.7626 6.66781H17.7627ZM9.52052 5.73785C8.16579 5.9941 7.41494 6.12561 6.3262 7.30772C5.4119 8.30043 5.0111 6.82288 7.3475 5.88692C7.78649 5.71111 9.45603 4.86422 9.52052 5.73785ZM12.1907 5.44789C12.7124 4.71834 13.9105 5.26358 14.5323 5.58119C14.9633 5.80136 16.2762 6.39201 16.4691 6.82074C16.6407 7.20241 15.791 6.73767 15.7329 6.71072C15.1627 6.44612 14.0207 5.90585 13.4417 5.8082C12.8604 5.71007 12.71 5.78955 12.1907 5.44789ZM22.9545 8.86564C22.8014 8.34203 22.2319 7.69907 21.9683 7.11423C21.8532 6.85882 21.624 6.44418 21.4832 6.18759C21.3438 5.9337 21.0224 5.57684 20.9408 5.37768C20.2861 4.67024 20.4791 4.34828 21.1346 5.08204C22.5413 6.65654 23.796 9.11387 24.1018 11.1769C24.2536 12.2014 24.1083 12.8507 23.8742 13.8271C23.5854 15.0312 23.1861 15.0568 23.3203 13.8799C23.5789 11.6109 23.9344 11.184 22.9545 8.86564ZM3.83884 3.93517C2.96534 5.20685 2.39504 5.73723 1.83752 7.27234C1.50237 8.19525 1.39874 8.4083 1.31838 9.41945C1.31818 9.42242 1.1971 11.6431 0.987701 10.9537C0.656402 9.86318 1.13206 7.4847 1.62791 6.441C1.90715 5.85319 3.10757 3.64265 3.83884 3.9351V3.93517ZM10.7273 3.54479C10.9894 3.18752 11.3714 3.30216 11.8008 3.29152C13.2357 3.25586 12.8866 3.57243 14.0794 3.64589C15.8688 3.75612 14.5107 4.73085 12.8939 4.00151C12.1164 3.65073 11.2695 3.89225 10.7273 3.54486V3.54479ZM13.0945 2.71525C14.0067 1.7392 17.6859 3.84022 17.6958 3.95645C17.7495 4.58773 15.8587 3.57209 15.6384 3.48115C14.9612 3.20154 13.5653 2.9784 13.0945 2.71525ZM4.047 5.41493C4.51003 5.03284 4.84346 4.45132 5.44713 3.98036C5.97107 3.5716 6.51541 3.11233 7.09717 2.80308C7.936 2.29495 11.5988 0.745604 12.3976 1.43307C12.7395 1.72739 10.426 2.15784 10.2281 2.21845C9.51441 2.43682 8.28824 2.90736 7.62413 3.23941C5.864 4.11961 4.86578 4.9562 3.8282 6.64956C3.78692 6.71694 2.60279 8.70186 2.69234 7.6281C2.74227 7.02909 3.64208 5.87427 4.047 5.41486V5.41493ZM2.32712 3.91299L0.637721 6.7432C0.210823 8.37969 -0.00654103 9.79421 -0.000360068 11.4988C0.00691973 13.5094 0.502908 14.253 0.891965 16.0177L1.26461 16.7985C2.20666 19.0163 3.06739 20.9336 4.99242 22.4972C8.86967 25.6464 14.8916 25.8773 18.8886 22.8778C21.2778 21.0849 21.3197 19.5593 23.1377 17.6706L23.5118 17.1514C24.794 15.0334 25.3029 12.7066 24.8199 10.2493C24.355 7.88324 23.2789 6.47141 21.8752 4.63106C19.2891 1.76899 16.5136 -0.0480036 12.5071 -0.000113492C7.96251 0.0542034 5.53909 0.596751 2.32725 3.91285L2.32712 3.91299Z" fill="#DAD0C7"/>
</svg>
